<?xml version="1.0" encoding="utf-8"?>
<!-- Generator: Adobe Illustrator 23.0.2, SVG Export Plug-In . SVG Version: 6.00 Build 0)  -->
<svg version="1.1" id="Layer_1" xmlns="http://www.w3.org/2000/svg" xmlns:xlink="http://www.w3.org/1999/xlink" x="0px" y="0px"
	 viewBox="0 0 1000 1000" style="enable-background:new 0 0 1000 1000;" xml:space="preserve">
<style type="text/css">
	.st0{fill:#3DBDED;}
</style>
<g>
	<g transform="translate(0.000000,511.000000) scale(0.100000,-0.100000)">
		<path class="st0" d="M4727.1,4977.5c-730.4-178.8-1141.6-1001.1-835.1-1672.8c33.2-76.6,58.7-140.5,56.2-140.5
			C3026.2,2776,2380.1,1971.6,2206.4,996c-28.1-153.2-43.4-528.7-56.2-1397c-7.7-653.8-28.1-1215.7-40.9-1251.4
			C2071-1752,1836-2050.8,1596-2306.2c-122.6-127.7-232.4-265.6-247.7-301.4c-66.4-176.2-5.1-362.7,160.9-485.2
			c69-51.1,104.7-53.6,978.2-61.3l904.1-7.7v-109.8c0-145.6,84.3-464.8,160.9-620.6c337.1-661.5,1070.1-1013.9,1792.8-863.2
			c595.1,125.2,1111,625.7,1248.9,1213.1c23,91.9,40.9,214.5,40.9,273.3v107.2l891.3,7.7c860.7,7.7,896.4,10.2,965.4,61.3
			c120,89.4,186.4,209.4,186.4,334.6c0,148.1-20.4,181.3-268.2,454.6c-255.4,283.5-408.6,475-480.1,610.4
			c-56.2,104.7-56.2,120-56.2,1343.4c0,1179.9-2.5,1248.9-56.2,1468.5c-143,595.1-393.3,1042-819.8,1448.1
			c-235,224.7-421.4,355-712.6,503.1c-212,104.7-232.4,125.1-189,171.1c12.8,12.8,48.5,94.5,76.6,181.3
			c71.5,209.4,71.5,505.7,2.5,725.3C5988.8,4752.8,5337.5,5125.7,4727.1,4977.5z M5204.7,4137.3
			c375.4-199.2,206.9-781.5-219.6-750.9c-229.8,15.3-375.4,173.7-378,403.5c0,158.3,74.1,278.4,214.5,349.9
			C4964.6,4211.4,5066.8,4211.4,5204.7,4137.3z M5554.6,2487.5c730.4-206.9,1236.1-715.1,1445.5-1458.3
			c53.6-183.9,56.2-242.6,56.2-1494v-1302.5l84.3-178.8c46-97,109.8-212,143-255.4c30.6-40.9,66.4-92,76.6-107.3
			c15.3-25.5-464.8-33.2-2359.8-33.2H2620.1l76.6,97c40.9,51.1,114.9,168.5,160.9,260.5l86.8,166l28.1,1353.6
			c23,1116.1,35.8,1379.1,71.5,1506.8c58.7,214.5,245.2,584.8,383.1,758.5c298.8,375.4,791.7,656.4,1279.5,735.5
			C4931.4,2569.2,5340,2546.2,5554.6,2487.5z M5810-3284.4c-58.7-492.9-602.7-817.3-1077.8-641
			c-283.5,104.7-523.5,418.8-523.5,681.9v84.3h807h809.6L5810-3284.4z"/>
	</g>
</g>
</svg>
